<svg width="293" height="27" viewBox="0 0 293 27" fill="none" xmlns="http://www.w3.org/2000/svg">
<path d="M6.97168 11.1549H5.97266L5.15625 8.99576H1.89062L1.12256 11.1549H0.118164L3.07227 3.45279H4.00684L6.97168 11.1549ZM4.86084 8.18472L3.65234 4.90298C3.61296 4.79556 3.57357 4.62369 3.53418 4.38736H3.5127C3.47689 4.60578 3.43571 4.77766 3.38916 4.90298L2.19141 8.18472H4.86084ZM8.89453 10.36H8.87305V11.1549H7.99219V3.01236H8.87305V6.62173H8.89453C9.3278 5.89127 9.96159 5.52603 10.7959 5.52603C11.5013 5.52603 12.0527 5.7731 12.4502 6.26724C12.8512 6.7578 13.0518 7.41666 13.0518 8.2438C13.0518 9.16405 12.828 9.90168 12.3804 10.4567C11.9328 11.0081 11.3205 11.2838 10.5435 11.2838C9.81657 11.2838 9.26693 10.9759 8.89453 10.36ZM8.87305 8.14175V8.90982C8.87305 9.36457 9.01986 9.75129 9.31348 10.07C9.61068 10.3851 9.98665 10.5426 10.4414 10.5426C10.9749 10.5426 11.3921 10.3385 11.6929 9.93033C11.9972 9.52213 12.1494 8.95458 12.1494 8.22769C12.1494 7.61539 12.008 7.13557 11.7251 6.78824C11.4422 6.44091 11.0591 6.26724 10.5757 6.26724C10.0636 6.26724 9.65186 6.44628 9.34033 6.80435C9.02881 7.15884 8.87305 7.60464 8.87305 8.14175ZM16.7578 11.2838C15.945 11.2838 15.2951 11.0278 14.8081 10.5158C14.3247 10.0002 14.083 9.31802 14.083 8.46939C14.083 7.54556 14.3354 6.82405 14.8403 6.30484C15.3452 5.78563 16.0273 5.52603 16.8867 5.52603C17.7067 5.52603 18.3459 5.77847 18.8042 6.28336C19.2661 6.78824 19.4971 7.48827 19.4971 8.38345C19.4971 9.26073 19.2482 9.96435 18.7505 10.4943C18.2563 11.0207 17.5921 11.2838 16.7578 11.2838ZM16.8223 6.26724C16.2565 6.26724 15.8089 6.4606 15.4795 6.84732C15.1501 7.23046 14.9854 7.76041 14.9854 8.43716C14.9854 9.08886 15.1519 9.60269 15.4849 9.97867C15.8179 10.3546 16.2637 10.5426 16.8223 10.5426C17.3916 10.5426 17.8285 10.3582 18.1328 9.98941C18.4408 9.6206 18.5947 9.09602 18.5947 8.41568C18.5947 7.72818 18.4408 7.19823 18.1328 6.82584C17.8285 6.45344 17.3916 6.26724 16.8223 6.26724ZM25.3516 11.1549H24.4707V10.2848H24.4492C24.084 10.9508 23.5182 11.2838 22.752 11.2838C21.4414 11.2838 20.7861 10.5032 20.7861 8.94205V5.65494H21.6616V8.8024C21.6616 9.96255 22.1056 10.5426 22.9937 10.5426C23.4233 10.5426 23.776 10.3851 24.0518 10.07C24.3311 9.75129 24.4707 9.33593 24.4707 8.82388V5.65494H25.3516V11.1549ZM29.686 11.1012C29.4784 11.2158 29.2044 11.2731 28.8643 11.2731C27.901 11.2731 27.4194 10.736 27.4194 9.66177V6.40689H26.4741V5.65494H27.4194V4.31216L28.3003 4.0275V5.65494H29.686V6.40689H28.3003V9.50601C28.3003 9.87483 28.363 10.138 28.4883 10.2956C28.6136 10.4531 28.8213 10.5319 29.1113 10.5319C29.3333 10.5319 29.5249 10.471 29.686 10.3493V11.1012Z" fill="#C7C7C7"/>
<path d="M33.9478 8.41568C33.783 8.41568 33.6416 8.3566 33.5234 8.23843C33.4089 8.12027 33.3516 7.97883 33.3516 7.81412C33.3516 7.64582 33.4089 7.50259 33.5234 7.38443C33.6416 7.26627 33.783 7.20718 33.9478 7.20718C34.116 7.20718 34.2593 7.26627 34.3774 7.38443C34.4956 7.50259 34.5547 7.64582 34.5547 7.81412C34.5547 7.97883 34.4956 8.12027 34.3774 8.23843C34.2593 8.3566 34.116 8.41568 33.9478 8.41568Z" fill="white"/>
<path d="M40.4121 8.2438V11.1549H39.5098V3.45279H41.626C42.4495 3.45279 43.0869 3.65331 43.5381 4.05435C43.9928 4.45539 44.2202 5.02115 44.2202 5.75162C44.2202 6.48209 43.9678 7.08007 43.4629 7.54556C42.9616 8.01106 42.283 8.2438 41.4272 8.2438H40.4121ZM40.4121 4.2692V7.4274H41.3574C41.9805 7.4274 42.4549 7.28596 42.7808 7.00308C43.1102 6.71662 43.2749 6.31379 43.2749 5.79459C43.2749 4.77766 42.6733 4.2692 41.4702 4.2692H40.4121ZM48.4258 6.54654C48.2718 6.42838 48.0498 6.36929 47.7598 6.36929C47.3838 6.36929 47.0687 6.54654 46.8145 6.90103C46.5638 7.25552 46.4385 7.73892 46.4385 8.35123V11.1549H45.5576V5.65494H46.4385V6.78824H46.46C46.5853 6.40152 46.7769 6.10074 47.0347 5.88589C47.2925 5.66747 47.5807 5.55826 47.8994 5.55826C48.1286 5.55826 48.304 5.58332 48.4258 5.63345V6.54654ZM53.8022 8.62515H49.9189C49.9333 9.23746 50.098 9.71011 50.4131 10.0431C50.7282 10.3761 51.1615 10.5426 51.7129 10.5426C52.3324 10.5426 52.9017 10.3385 53.4209 9.93033V10.7575C52.9375 11.1084 52.2983 11.2838 51.5034 11.2838C50.7264 11.2838 50.1159 11.035 49.6719 10.5373C49.2279 10.036 49.0059 9.33235 49.0059 8.42642C49.0059 7.57063 49.2476 6.87418 49.731 6.33707C50.2179 5.79638 50.8213 5.52603 51.541 5.52603C52.2607 5.52603 52.8175 5.75878 53.2114 6.22427C53.6053 6.68977 53.8022 7.33609 53.8022 8.16324V8.62515ZM52.8999 7.87857C52.8963 7.37011 52.7728 6.97444 52.5293 6.69156C52.2894 6.40868 51.9546 6.26724 51.5249 6.26724C51.1095 6.26724 50.7568 6.41584 50.4668 6.71304C50.1768 7.01024 49.9977 7.39875 49.9297 7.87857H52.8999ZM54.8066 10.9562V10.0109C55.2865 10.3654 55.8146 10.5426 56.3911 10.5426C57.1646 10.5426 57.5513 10.2848 57.5513 9.7692C57.5513 9.62239 57.5173 9.49885 57.4492 9.39859C57.3848 9.29475 57.2952 9.20344 57.1807 9.12466C57.0697 9.04589 56.9372 8.97606 56.7832 8.91519C56.6328 8.85074 56.4699 8.7845 56.2944 8.71646C56.0509 8.61978 55.8361 8.5231 55.6499 8.42642C55.4673 8.32616 55.3133 8.21516 55.188 8.09341C55.0662 7.96809 54.9731 7.82665 54.9087 7.6691C54.8478 7.51155 54.8174 7.32714 54.8174 7.11588C54.8174 6.85806 54.8765 6.63069 54.9946 6.43375C55.1128 6.23323 55.2703 6.06672 55.4673 5.93423C55.6642 5.79817 55.888 5.69612 56.1387 5.62808C56.3929 5.56005 56.6543 5.52603 56.9229 5.52603C57.3991 5.52603 57.8252 5.60839 58.2012 5.7731V6.6647C57.7965 6.39973 57.3311 6.26724 56.8047 6.26724C56.64 6.26724 56.4914 6.28694 56.3589 6.32632C56.2264 6.36213 56.1118 6.41405 56.0151 6.48209C55.922 6.55012 55.8486 6.63248 55.7949 6.72916C55.7448 6.82226 55.7197 6.9261 55.7197 7.04068C55.7197 7.18391 55.7448 7.30386 55.7949 7.40054C55.8486 7.49722 55.9256 7.58316 56.0259 7.65836C56.1261 7.73355 56.2479 7.80158 56.3911 7.86246C56.5343 7.92333 56.6973 7.98957 56.8799 8.06119C57.1234 8.15429 57.3418 8.25097 57.5352 8.35123C57.7285 8.44791 57.8932 8.55891 58.0293 8.68423C58.1654 8.80598 58.2692 8.94742 58.3408 9.10855C58.416 9.26968 58.4536 9.46125 58.4536 9.68326C58.4536 9.95539 58.3927 10.1917 58.271 10.3922C58.1528 10.5928 57.9935 10.7593 57.793 10.8918C57.5924 11.0242 57.3615 11.1227 57.1001 11.1872C56.8387 11.2516 56.5648 11.2838 56.2783 11.2838C55.7126 11.2838 55.222 11.1746 54.8066 10.9562ZM59.4795 10.9562V10.0109C59.9593 10.3654 60.4875 10.5426 61.064 10.5426C61.8374 10.5426 62.2241 10.2848 62.2241 9.7692C62.2241 9.62239 62.1901 9.49885 62.1221 9.39859C62.0576 9.29475 61.9681 9.20344 61.8535 9.12466C61.7425 9.04589 61.61 8.97606 61.4561 8.91519C61.3057 8.85074 61.1427 8.7845 60.9673 8.71646C60.7238 8.61978 60.509 8.5231 60.3228 8.42642C60.1401 8.32616 59.9862 8.21516 59.8608 8.09341C59.7391 7.96809 59.646 7.82665 59.5815 7.6691C59.5207 7.51155 59.4902 7.32714 59.4902 7.11588C59.4902 6.85806 59.5493 6.63069 59.6675 6.43375C59.7856 6.23323 59.9432 6.06672 60.1401 5.93423C60.3371 5.79817 60.5609 5.69612 60.8115 5.62808C61.0658 5.56005 61.3271 5.52603 61.5957 5.52603C62.0719 5.52603 62.498 5.60839 62.874 5.7731V6.6647C62.4694 6.39973 62.0039 6.26724 61.4775 6.26724C61.3128 6.26724 61.1642 6.28694 61.0317 6.32632C60.8993 6.36213 60.7847 6.41405 60.688 6.48209C60.5949 6.55012 60.5215 6.63248 60.4678 6.72916C60.4176 6.82226 60.3926 6.9261 60.3926 7.04068C60.3926 7.18391 60.4176 7.30386 60.4678 7.40054C60.5215 7.49722 60.5985 7.58316 60.6987 7.65836C60.799 7.73355 60.9207 7.80158 61.064 7.86246C61.2072 7.92333 61.3701 7.98957 61.5527 8.06119C61.7962 8.15429 62.0146 8.25097 62.208 8.35123C62.4014 8.44791 62.5661 8.55891 62.7021 8.68423C62.8382 8.80598 62.9421 8.94742 63.0137 9.10855C63.0889 9.26968 63.1265 9.46125 63.1265 9.68326C63.1265 9.95539 63.0656 10.1917 62.9438 10.3922C62.8257 10.5928 62.6663 10.7593 62.4658 10.8918C62.2653 11.0242 62.0343 11.1227 61.7729 11.1872C61.5116 11.2516 61.2376 11.2838 60.9512 11.2838C60.3854 11.2838 59.8949 11.1746 59.4795 10.9562Z" fill="#C7C7C7"/>
<path d="M68.4478 8.41568C68.283 8.41568 68.1416 8.3566 68.0234 8.23843C67.9089 8.12027 67.8516 7.97883 67.8516 7.81412C67.8516 7.64582 67.9089 7.50259 68.0234 7.38443C68.1416 7.26627 68.283 7.20718 68.4478 7.20718C68.616 7.20718 68.7593 7.26627 68.8774 7.38443C68.9956 7.50259 69.0547 7.64582 69.0547 7.81412C69.0547 7.97883 68.9956 8.12027 68.8774 8.23843C68.7593 8.3566 68.616 8.41568 68.4478 8.41568Z" fill="white"/>
<path d="M79.9717 11.1549H78.9727L78.1562 8.99576H74.8906L74.1226 11.1549H73.1182L76.0723 3.45279H77.0068L79.9717 11.1549ZM77.8608 8.18472L76.6523 4.90298C76.613 4.79556 76.5736 4.62369 76.5342 4.38736H76.5127C76.4769 4.60578 76.4357 4.77766 76.3892 4.90298L75.1914 8.18472H77.8608ZM82.0127 8.2438V11.1549H81.1104V3.45279H83.2266C84.0501 3.45279 84.6875 3.65331 85.1387 4.05435C85.5934 4.45539 85.8208 5.02115 85.8208 5.75162C85.8208 6.48209 85.5684 7.08007 85.0635 7.54556C84.5622 8.01106 83.8836 8.2438 83.0278 8.2438H82.0127ZM82.0127 4.2692V7.4274H82.958C83.5811 7.4274 84.0555 7.28596 84.3813 7.00308C84.7108 6.71662 84.8755 6.31379 84.8755 5.79459C84.8755 4.77766 84.2739 4.2692 83.0708 4.2692H82.0127ZM88.1787 11.1549H87.2764V3.45279H88.1787V11.1549Z" fill="#C7C7C7"/>
<path d="M93.9478 8.41568C93.783 8.41568 93.6416 8.3566 93.5234 8.23843C93.4089 8.12027 93.3516 7.97883 93.3516 7.81412C93.3516 7.64582 93.4089 7.50259 93.5234 7.38443C93.6416 7.26627 93.783 7.20718 93.9478 7.20718C94.116 7.20718 94.2593 7.26627 94.3774 7.38443C94.4956 7.50259 94.5547 7.64582 94.5547 7.81412C94.5547 7.97883 94.4956 8.12027 94.3774 8.23843C94.2593 8.3566 94.116 8.41568 93.9478 8.41568Z" fill="white"/>
<path d="M101.481 8.3942C101.481 9.30728 101.288 10.0181 100.901 10.5265C100.514 11.0314 99.9967 11.2838 99.3486 11.2838C99.0479 11.2838 98.8008 11.2409 98.6074 11.1549V10.2633C98.8008 10.403 99.0514 10.4728 99.3594 10.4728C100.172 10.4728 100.579 9.78352 100.579 8.40494V3.45279H101.481V8.3942ZM105.622 11.2838C104.809 11.2838 104.159 11.0278 103.672 10.5158C103.189 10.0002 102.947 9.31802 102.947 8.46939C102.947 7.54556 103.2 6.82405 103.705 6.30484C104.209 5.78563 104.892 5.52603 105.751 5.52603C106.571 5.52603 107.21 5.77847 107.668 6.28336C108.13 6.78824 108.361 7.48827 108.361 8.38345C108.361 9.26073 108.112 9.96435 107.615 10.4943C107.121 11.0207 106.456 11.2838 105.622 11.2838ZM105.687 6.26724C105.121 6.26724 104.673 6.4606 104.344 6.84732C104.014 7.23046 103.85 7.76041 103.85 8.43716C103.85 9.08886 104.016 9.60269 104.349 9.97867C104.682 10.3546 105.128 10.5426 105.687 10.5426C106.256 10.5426 106.693 10.3582 106.997 9.98941C107.305 9.6206 107.459 9.09602 107.459 8.41568C107.459 7.72818 107.305 7.19823 106.997 6.82584C106.693 6.45344 106.256 6.26724 105.687 6.26724ZM110.671 10.36H110.649V11.1549H109.769V3.01236H110.649V6.62173H110.671C111.104 5.89127 111.738 5.52603 112.572 5.52603C113.278 5.52603 113.829 5.7731 114.227 6.26724C114.628 6.7578 114.828 7.41666 114.828 8.2438C114.828 9.16405 114.604 9.90168 114.157 10.4567C113.709 11.0081 113.097 11.2838 112.32 11.2838C111.593 11.2838 111.043 10.9759 110.671 10.36ZM110.649 8.14175V8.90982C110.649 9.36457 110.796 9.75129 111.09 10.07C111.387 10.3851 111.763 10.5426 112.218 10.5426C112.751 10.5426 113.168 10.3385 113.469 9.93033C113.774 9.52213 113.926 8.95458 113.926 8.22769C113.926 7.61539 113.784 7.13557 113.501 6.78824C113.219 6.44091 112.835 6.26724 112.352 6.26724C111.84 6.26724 111.428 6.44628 111.117 6.80435C110.805 7.15884 110.649 7.60464 110.649 8.14175ZM115.902 10.9562V10.0109C116.382 10.3654 116.91 10.5426 117.487 10.5426C118.26 10.5426 118.647 10.2848 118.647 9.7692C118.647 9.62239 118.613 9.49885 118.545 9.39859C118.48 9.29475 118.391 9.20344 118.276 9.12466C118.165 9.04589 118.033 8.97606 117.879 8.91519C117.729 8.85074 117.566 8.7845 117.39 8.71646C117.147 8.61978 116.932 8.5231 116.746 8.42642C116.563 8.32616 116.409 8.21516 116.284 8.09341C116.162 7.96809 116.069 7.82665 116.004 7.6691C115.944 7.51155 115.913 7.32714 115.913 7.11588C115.913 6.85806 115.972 6.63069 116.09 6.43375C116.208 6.23323 116.366 6.06672 116.563 5.93423C116.76 5.79817 116.984 5.69612 117.234 5.62808C117.489 5.56005 117.75 5.52603 118.019 5.52603C118.495 5.52603 118.921 5.60839 119.297 5.7731V6.6647C118.892 6.39973 118.427 6.26724 117.9 6.26724C117.736 6.26724 117.587 6.28694 117.455 6.32632C117.322 6.36213 117.208 6.41405 117.111 6.48209C117.018 6.55012 116.944 6.63248 116.891 6.72916C116.84 6.82226 116.815 6.9261 116.815 7.04068C116.815 7.18391 116.84 7.30386 116.891 7.40054C116.944 7.49722 117.021 7.58316 117.122 7.65836C117.222 7.73355 117.344 7.80158 117.487 7.86246C117.63 7.92333 117.793 7.98957 117.976 8.06119C118.219 8.15429 118.438 8.25097 118.631 8.35123C118.824 8.44791 118.989 8.55891 119.125 8.68423C119.261 8.80598 119.365 8.94742 119.437 9.10855C119.512 9.26968 119.549 9.46125 119.549 9.68326C119.549 9.95539 119.488 10.1917 119.367 10.3922C119.249 10.5928 119.089 10.7593 118.889 10.8918C118.688 11.0242 118.457 11.1227 118.196 11.1872C117.934 11.2516 117.66 11.2838 117.374 11.2838C116.808 11.2838 116.318 11.1746 115.902 10.9562Z" fill="#C7C7C7"/>
<path d="M124.448 8.41568C124.283 8.41568 124.142 8.3566 124.023 8.23843C123.909 8.12027 123.852 7.97883 123.852 7.81412C123.852 7.64582 123.909 7.50259 124.023 7.38443C124.142 7.26627 124.283 7.20718 124.448 7.20718C124.616 7.20718 124.759 7.26627 124.877 7.38443C124.996 7.50259 125.055 7.64582 125.055 7.81412C125.055 7.97883 124.996 8.12027 124.877 8.23843C124.759 8.3566 124.616 8.41568 124.448 8.41568Z" fill="white"/>
<path d="M130.912 8.2438V11.1549H130.01V3.45279H132.126C132.95 3.45279 133.587 3.65331 134.038 4.05435C134.493 4.45539 134.72 5.02115 134.72 5.75162C134.72 6.48209 134.468 7.08007 133.963 7.54556C133.462 8.01106 132.783 8.2438 131.927 8.2438H130.912ZM130.912 4.2692V7.4274H131.857C132.48 7.4274 132.955 7.28596 133.281 7.00308C133.61 6.71662 133.775 6.31379 133.775 5.79459C133.775 4.77766 133.173 4.2692 131.97 4.2692H130.912ZM138.926 6.54654C138.772 6.42838 138.55 6.36929 138.26 6.36929C137.884 6.36929 137.569 6.54654 137.314 6.90103C137.064 7.25552 136.938 7.73892 136.938 8.35123V11.1549H136.058V5.65494H136.938V6.78824H136.96C137.085 6.40152 137.277 6.10074 137.535 5.88589C137.792 5.66747 138.081 5.55826 138.399 5.55826C138.629 5.55826 138.804 5.58332 138.926 5.63345V6.54654ZM140.333 4.25845C140.175 4.25845 140.041 4.20474 139.93 4.09732C139.819 3.9899 139.764 3.85383 139.764 3.68912C139.764 3.5244 139.819 3.38834 139.93 3.28091C140.041 3.16991 140.175 3.11441 140.333 3.11441C140.494 3.11441 140.63 3.16991 140.741 3.28091C140.856 3.38834 140.913 3.5244 140.913 3.68912C140.913 3.84667 140.856 3.98095 140.741 4.09195C140.63 4.20295 140.494 4.25845 140.333 4.25845ZM140.763 11.1549H139.882V5.65494H140.763V11.1549ZM146.87 5.65494L144.678 11.1549H143.813L141.729 5.65494H142.696L144.093 9.65103C144.197 9.94465 144.261 10.2007 144.286 10.4191H144.308C144.343 10.1434 144.401 9.89452 144.479 9.67252L145.94 5.65494H146.87ZM151.757 11.1549H150.876V10.2956H150.855C150.472 10.9544 149.908 11.2838 149.163 11.2838C148.615 11.2838 148.186 11.1388 147.874 10.8488C147.566 10.5587 147.412 10.1738 147.412 9.694C147.412 8.66633 148.017 8.06835 149.228 7.90005L150.876 7.6691C150.876 6.73453 150.499 6.26724 149.743 6.26724C149.081 6.26724 148.483 6.49283 147.949 6.944V6.04166C148.49 5.69791 149.113 5.52603 149.818 5.52603C151.111 5.52603 151.757 6.20995 151.757 7.57779V11.1549ZM150.876 8.37271L149.55 8.55533C149.142 8.61262 148.834 8.71467 148.626 8.86148C148.418 9.00471 148.314 9.26073 148.314 9.62955C148.314 9.8981 148.409 10.1183 148.599 10.2902C148.792 10.4585 149.049 10.5426 149.367 10.5426C149.804 10.5426 150.164 10.3905 150.447 10.0861C150.733 9.77815 150.876 9.38964 150.876 8.92056V8.37271ZM157.166 10.9025C156.743 11.1567 156.242 11.2838 155.662 11.2838C154.878 11.2838 154.244 11.0296 153.761 10.5211C153.281 10.0091 153.041 9.34667 153.041 8.53384C153.041 7.62792 153.301 6.90103 153.82 6.35318C154.339 5.80175 155.032 5.52603 155.898 5.52603C156.382 5.52603 156.808 5.61555 157.177 5.79459V6.69693C156.769 6.41047 156.332 6.26724 155.866 6.26724C155.304 6.26724 154.842 6.46955 154.48 6.87418C154.122 7.27522 153.943 7.80338 153.943 8.45865C153.943 9.10318 154.112 9.61164 154.448 9.98404C154.788 10.3564 155.243 10.5426 155.812 10.5426C156.292 10.5426 156.743 10.3833 157.166 10.0646V10.9025ZM162.875 5.65494L160.346 12.0358C159.895 13.1745 159.261 13.7438 158.444 13.7438C158.215 13.7438 158.024 13.7205 157.87 13.674V12.8844C158.059 12.9489 158.233 12.9811 158.391 12.9811C158.835 12.9811 159.168 12.7161 159.39 12.1862L159.83 11.1442L157.682 5.65494H158.659L160.147 9.88736C160.165 9.94107 160.202 10.0807 160.26 10.3063H160.292C160.31 10.2204 160.346 10.0843 160.399 9.8981L161.962 5.65494H162.875Z" fill="#C7C7C7"/>
<path d="M166.948 8.41568C166.783 8.41568 166.642 8.3566 166.523 8.23843C166.409 8.12027 166.352 7.97883 166.352 7.81412C166.352 7.64582 166.409 7.50259 166.523 7.38443C166.642 7.26627 166.783 7.20718 166.948 7.20718C167.116 7.20718 167.259 7.26627 167.377 7.38443C167.496 7.50259 167.555 7.64582 167.555 7.81412C167.555 7.97883 167.496 8.12027 167.377 8.23843C167.259 8.3566 167.116 8.41568 166.948 8.41568Z" fill="white"/>
<path d="M177.064 4.2692H174.841V11.1549H173.938V4.2692H171.72V3.45279H177.064V4.2692ZM181.506 8.62515H177.623C177.637 9.23746 177.802 9.71011 178.117 10.0431C178.432 10.3761 178.866 10.5426 179.417 10.5426C180.036 10.5426 180.606 10.3385 181.125 9.93033V10.7575C180.642 11.1084 180.002 11.2838 179.208 11.2838C178.431 11.2838 177.82 11.035 177.376 10.5373C176.932 10.036 176.71 9.33235 176.71 8.42642C176.71 7.57063 176.952 6.87418 177.435 6.33707C177.922 5.79638 178.525 5.52603 179.245 5.52603C179.965 5.52603 180.522 5.75878 180.916 6.22427C181.309 6.68977 181.506 7.33609 181.506 8.16324V8.62515ZM180.604 7.87857C180.6 7.37011 180.477 6.97444 180.233 6.69156C179.993 6.40868 179.659 6.26724 179.229 6.26724C178.814 6.26724 178.461 6.41584 178.171 6.71304C177.881 7.01024 177.702 7.39875 177.634 7.87857H180.604ZM185.712 6.54654C185.558 6.42838 185.336 6.36929 185.046 6.36929C184.67 6.36929 184.355 6.54654 184.101 6.90103C183.85 7.25552 183.725 7.73892 183.725 8.35123V11.1549H182.844V5.65494H183.725V6.78824H183.746C183.871 6.40152 184.063 6.10074 184.321 5.88589C184.579 5.66747 184.867 5.55826 185.186 5.55826C185.415 5.55826 185.59 5.58332 185.712 5.63345V6.54654ZM194.478 11.1549H193.597V7.99673C193.597 7.38801 193.502 6.94758 193.312 6.67545C193.126 6.40331 192.811 6.26724 192.367 6.26724C191.991 6.26724 191.67 6.43912 191.405 6.78287C191.144 7.12662 191.013 7.5384 191.013 8.01822V11.1549H190.132V7.88931C190.132 6.80793 189.715 6.26724 188.881 6.26724C188.494 6.26724 188.175 6.43017 187.925 6.75601C187.674 7.07828 187.549 7.49901 187.549 8.01822V11.1549H186.668V5.65494H187.549V6.52505H187.57C187.961 5.85904 188.53 5.52603 189.278 5.52603C189.654 5.52603 189.982 5.63166 190.261 5.84293C190.541 6.05061 190.732 6.32453 190.836 6.6647C191.244 5.90559 191.853 5.52603 192.662 5.52603C193.872 5.52603 194.478 6.27261 194.478 7.76578V11.1549ZM195.81 10.9562V10.0109C196.289 10.3654 196.818 10.5426 197.394 10.5426C198.167 10.5426 198.554 10.2848 198.554 9.7692C198.554 9.62239 198.52 9.49885 198.452 9.39859C198.388 9.29475 198.298 9.20344 198.184 9.12466C198.073 9.04589 197.94 8.97606 197.786 8.91519C197.636 8.85074 197.473 8.7845 197.297 8.71646C197.054 8.61978 196.839 8.5231 196.653 8.42642C196.47 8.32616 196.316 8.21516 196.191 8.09341C196.069 7.96809 195.976 7.82665 195.912 7.6691C195.851 7.51155 195.82 7.32714 195.82 7.11588C195.82 6.85806 195.879 6.63069 195.998 6.43375C196.116 6.23323 196.273 6.06672 196.47 5.93423C196.667 5.79817 196.891 5.69612 197.142 5.62808C197.396 5.56005 197.657 5.52603 197.926 5.52603C198.402 5.52603 198.828 5.60839 199.204 5.7731V6.6647C198.799 6.39973 198.334 6.26724 197.808 6.26724C197.643 6.26724 197.494 6.28694 197.362 6.32632C197.229 6.36213 197.115 6.41405 197.018 6.48209C196.925 6.55012 196.852 6.63248 196.798 6.72916C196.748 6.82226 196.723 6.9261 196.723 7.04068C196.723 7.18391 196.748 7.30386 196.798 7.40054C196.852 7.49722 196.929 7.58316 197.029 7.65836C197.129 7.73355 197.251 7.80158 197.394 7.86246C197.537 7.92333 197.7 7.98957 197.883 8.06119C198.126 8.15429 198.345 8.25097 198.538 8.35123C198.731 8.44791 198.896 8.55891 199.032 8.68423C199.168 8.80598 199.272 8.94742 199.344 9.10855C199.419 9.26968 199.457 9.46125 199.457 9.68326C199.457 9.95539 199.396 10.1917 199.274 10.3922C199.156 10.5928 198.996 10.7593 198.796 10.8918C198.595 11.0242 198.364 11.1227 198.103 11.1872C197.842 11.2516 197.568 11.2838 197.281 11.2838C196.715 11.2838 196.225 11.1746 195.81 10.9562Z" fill="#C7C7C7"/>
<path d="M204.448 8.41568C204.283 8.41568 204.142 8.3566 204.023 8.23843C203.909 8.12027 203.852 7.97883 203.852 7.81412C203.852 7.64582 203.909 7.50259 204.023 7.38443C204.142 7.26627 204.283 7.20718 204.448 7.20718C204.616 7.20718 204.759 7.26627 204.877 7.38443C204.996 7.50259 205.055 7.64582 205.055 7.81412C205.055 7.97883 204.996 8.12027 204.877 8.23843C204.759 8.3566 204.616 8.41568 204.448 8.41568Z" fill="white"/>
<path d="M214.006 11.1549H210.01V3.45279H210.912V10.3385H214.006V11.1549ZM217.368 11.2838C216.555 11.2838 215.905 11.0278 215.418 10.5158C214.935 10.0002 214.693 9.31802 214.693 8.46939C214.693 7.54556 214.946 6.82405 215.451 6.30484C215.956 5.78563 216.638 5.52603 217.497 5.52603C218.317 5.52603 218.956 5.77847 219.415 6.28336C219.876 6.78824 220.107 7.48827 220.107 8.38345C220.107 9.26073 219.859 9.96435 219.361 10.4943C218.867 11.0207 218.202 11.2838 217.368 11.2838ZM217.433 6.26724C216.867 6.26724 216.419 6.4606 216.09 6.84732C215.76 7.23046 215.596 7.76041 215.596 8.43716C215.596 9.08886 215.762 9.60269 216.095 9.97867C216.428 10.3546 216.874 10.5426 217.433 10.5426C218.002 10.5426 218.439 10.3582 218.743 9.98941C219.051 9.6206 219.205 9.09602 219.205 8.41568C219.205 7.72818 219.051 7.19823 218.743 6.82584C218.439 6.45344 218.002 6.26724 217.433 6.26724ZM225.264 10.9025C224.841 11.1567 224.34 11.2838 223.76 11.2838C222.976 11.2838 222.342 11.0296 221.858 10.5211C221.379 10.0091 221.139 9.34667 221.139 8.53384C221.139 7.62792 221.398 6.90103 221.917 6.35318C222.437 5.80175 223.13 5.52603 223.996 5.52603C224.479 5.52603 224.906 5.61555 225.274 5.79459V6.69693C224.866 6.41047 224.429 6.26724 223.964 6.26724C223.402 6.26724 222.94 6.46955 222.578 6.87418C222.22 7.27522 222.041 7.80338 222.041 8.45865C222.041 9.10318 222.209 9.61164 222.546 9.98404C222.886 10.3564 223.341 10.5426 223.91 10.5426C224.39 10.5426 224.841 10.3833 225.264 10.0646V10.9025ZM230.533 11.1549H229.652V10.2956H229.63C229.247 10.9544 228.683 11.2838 227.938 11.2838C227.391 11.2838 226.961 11.1388 226.649 10.8488C226.341 10.5587 226.188 10.1738 226.188 9.694C226.188 8.66633 226.793 8.06835 228.003 7.90005L229.652 7.6691C229.652 6.73453 229.274 6.26724 228.519 6.26724C227.856 6.26724 227.258 6.49283 226.725 6.944V6.04166C227.265 5.69791 227.888 5.52603 228.594 5.52603C229.886 5.52603 230.533 6.20995 230.533 7.57779V11.1549ZM229.652 8.37271L228.325 8.55533C227.917 8.61262 227.609 8.71467 227.401 8.86148C227.194 9.00471 227.09 9.26073 227.09 9.62955C227.09 9.8981 227.185 10.1183 227.375 10.2902C227.568 10.4585 227.824 10.5426 228.143 10.5426C228.579 10.5426 228.939 10.3905 229.222 10.0861C229.509 9.77815 229.652 9.38964 229.652 8.92056V8.37271ZM234.744 11.1012C234.536 11.2158 234.262 11.2731 233.922 11.2731C232.959 11.2731 232.477 10.736 232.477 9.66177V6.40689H231.532V5.65494H232.477V4.31216L233.358 4.0275V5.65494H234.744V6.40689H233.358V9.50601C233.358 9.87483 233.421 10.138 233.546 10.2956C233.671 10.4531 233.879 10.5319 234.169 10.5319C234.391 10.5319 234.583 10.471 234.744 10.3493V11.1012ZM236.371 4.25845C236.214 4.25845 236.079 4.20474 235.968 4.09732C235.857 3.9899 235.802 3.85383 235.802 3.68912C235.802 3.5244 235.857 3.38834 235.968 3.28091C236.079 3.16991 236.214 3.11441 236.371 3.11441C236.532 3.11441 236.668 3.16991 236.779 3.28091C236.894 3.38834 236.951 3.5244 236.951 3.68912C236.951 3.84667 236.894 3.98095 236.779 4.09195C236.668 4.20295 236.532 4.25845 236.371 4.25845ZM236.801 11.1549H235.92V5.65494H236.801V11.1549ZM240.883 11.2838C240.07 11.2838 239.42 11.0278 238.933 10.5158C238.45 10.0002 238.208 9.31802 238.208 8.46939C238.208 7.54556 238.46 6.82405 238.965 6.30484C239.47 5.78563 240.152 5.52603 241.012 5.52603C241.832 5.52603 242.471 5.77847 242.929 6.28336C243.391 6.78824 243.622 7.48827 243.622 8.38345C243.622 9.26073 243.373 9.96435 242.875 10.4943C242.381 11.0207 241.717 11.2838 240.883 11.2838ZM240.947 6.26724C240.382 6.26724 239.934 6.4606 239.604 6.84732C239.275 7.23046 239.11 7.76041 239.11 8.43716C239.11 9.08886 239.277 9.60269 239.61 9.97867C239.943 10.3546 240.389 10.5426 240.947 10.5426C241.517 10.5426 241.953 10.3582 242.258 9.98941C242.566 9.6206 242.72 9.09602 242.72 8.41568C242.72 7.72818 242.566 7.19823 242.258 6.82584C241.953 6.45344 241.517 6.26724 240.947 6.26724ZM249.595 11.1549H248.714V8.01822C248.714 6.8509 248.288 6.26724 247.436 6.26724C246.995 6.26724 246.63 6.43375 246.34 6.76675C246.053 7.09618 245.91 7.51334 245.91 8.01822V11.1549H245.029V5.65494H245.91V6.56802H245.932C246.347 5.87336 246.949 5.52603 247.736 5.52603C248.338 5.52603 248.798 5.72118 249.117 6.11148C249.435 6.4982 249.595 7.05858 249.595 7.79263V11.1549ZM250.927 10.9562V10.0109C251.407 10.3654 251.935 10.5426 252.511 10.5426C253.285 10.5426 253.671 10.2848 253.671 9.7692C253.671 9.62239 253.637 9.49885 253.569 9.39859C253.505 9.29475 253.415 9.20344 253.301 9.12466C253.19 9.04589 253.057 8.97606 252.903 8.91519C252.753 8.85074 252.59 8.7845 252.415 8.71646C252.171 8.61978 251.956 8.5231 251.77 8.42642C251.587 8.32616 251.433 8.21516 251.308 8.09341C251.186 7.96809 251.093 7.82665 251.029 7.6691C250.968 7.51155 250.938 7.32714 250.938 7.11588C250.938 6.85806 250.997 6.63069 251.115 6.43375C251.233 6.23323 251.39 6.06672 251.587 5.93423C251.784 5.79817 252.008 5.69612 252.259 5.62808C252.513 5.56005 252.774 5.52603 253.043 5.52603C253.519 5.52603 253.945 5.60839 254.321 5.7731V6.6647C253.917 6.39973 253.451 6.26724 252.925 6.26724C252.76 6.26724 252.611 6.28694 252.479 6.32632C252.347 6.36213 252.232 6.41405 252.135 6.48209C252.042 6.55012 251.969 6.63248 251.915 6.72916C251.865 6.82226 251.84 6.9261 251.84 7.04068C251.84 7.18391 251.865 7.30386 251.915 7.40054C251.969 7.49722 252.046 7.58316 252.146 7.65836C252.246 7.73355 252.368 7.80158 252.511 7.86246C252.654 7.92333 252.817 7.98957 253 8.06119C253.243 8.15429 253.462 8.25097 253.655 8.35123C253.849 8.44791 254.013 8.55891 254.149 8.68423C254.285 8.80598 254.389 8.94742 254.461 9.10855C254.536 9.26968 254.574 9.46125 254.574 9.68326C254.574 9.95539 254.513 10.1917 254.391 10.3922C254.273 10.5928 254.114 10.7593 253.913 10.8918C253.713 11.0242 253.482 11.1227 253.22 11.1872C252.959 11.2516 252.685 11.2838 252.398 11.2838C251.833 11.2838 251.342 11.1746 250.927 10.9562Z" fill="#C7C7C7"/>
<path d="M259.948 8.41568C259.783 8.41568 259.642 8.3566 259.523 8.23843C259.409 8.12027 259.352 7.97883 259.352 7.81412C259.352 7.64582 259.409 7.50259 259.523 7.38443C259.642 7.26627 259.783 7.20718 259.948 7.20718C260.116 7.20718 260.259 7.26627 260.377 7.38443C260.496 7.50259 260.555 7.64582 260.555 7.81412C260.555 7.97883 260.496 8.12027 260.377 8.23843C260.259 8.3566 260.116 8.41568 259.948 8.41568Z" fill="white"/>
<path d="M5.56445 17.2692H3.34082V24.1549H2.43848V17.2692H0.220215V16.4528H5.56445V17.2692ZM7.88477 24.2838C7.07194 24.2838 6.42204 24.0278 5.93506 23.5158C5.45166 23.0002 5.20996 22.318 5.20996 21.4694C5.20996 20.5456 5.4624 19.824 5.96729 19.3048C6.47217 18.7856 7.1543 18.526 8.01367 18.526C8.83366 18.526 9.47282 18.7785 9.93115 19.2834C10.3931 19.7882 10.624 20.4883 10.624 21.3835C10.624 22.2607 10.3752 22.9643 9.87744 23.4943C9.3833 24.0207 8.71908 24.2838 7.88477 24.2838ZM7.94922 19.2672C7.38346 19.2672 6.93587 19.4606 6.60645 19.8473C6.27702 20.2305 6.1123 20.7604 6.1123 21.4372C6.1123 22.0889 6.27881 22.6027 6.61182 22.9787C6.94482 23.3546 7.39062 23.5426 7.94922 23.5426C8.51855 23.5426 8.9554 23.3582 9.25977 22.9894C9.56771 22.6206 9.72168 22.096 9.72168 21.4157C9.72168 20.7282 9.56771 20.1982 9.25977 19.8258C8.9554 19.4534 8.51855 19.2672 7.94922 19.2672ZM12.9336 23.36H12.9121V26.6847H12.0312V18.6549H12.9121V19.6217H12.9336C13.3669 18.8913 14.0007 18.526 14.835 18.526C15.5439 18.526 16.0972 18.7731 16.4946 19.2672C16.8921 19.7578 17.0908 20.4167 17.0908 21.2438C17.0908 22.1641 16.867 22.9017 16.4194 23.4567C15.9718 24.0081 15.3595 24.2838 14.5825 24.2838C13.87 24.2838 13.3203 23.9759 12.9336 23.36ZM12.9121 21.1418V21.9098C12.9121 22.3646 13.0589 22.7513 13.3525 23.07C13.6497 23.3851 14.0257 23.5426 14.4805 23.5426C15.014 23.5426 15.4312 23.3385 15.7319 22.9303C16.0363 22.5221 16.1885 21.9546 16.1885 21.2277C16.1885 20.6154 16.047 20.1356 15.7642 19.7882C15.4813 19.4409 15.0981 19.2672 14.6147 19.2672C14.1027 19.2672 13.6909 19.4463 13.3794 19.8044C13.0679 20.1588 12.9121 20.6046 12.9121 21.1418ZM27.5967 24.1549H26.5977L25.7812 21.9958H22.5156L21.7476 24.1549H20.7432L23.6973 16.4528H24.6318L27.5967 24.1549ZM25.4858 21.1847L24.2773 17.903C24.238 17.7956 24.1986 17.6237 24.1592 17.3874H24.1377C24.1019 17.6058 24.0607 17.7777 24.0142 17.903L22.8164 21.1847H25.4858ZM32.3662 23.9025C31.9437 24.1567 31.4424 24.2838 30.8623 24.2838C30.0781 24.2838 29.4443 24.0296 28.9609 23.5211C28.4811 23.0091 28.2412 22.3467 28.2412 21.5338C28.2412 20.6279 28.5008 19.901 29.02 19.3532C29.5392 18.8017 30.2321 18.526 31.0986 18.526C31.582 18.526 32.0081 18.6155 32.377 18.7946V19.6969C31.9688 19.4105 31.5319 19.2672 31.0664 19.2672C30.5042 19.2672 30.0423 19.4696 29.6807 19.8742C29.3226 20.2752 29.1436 20.8034 29.1436 21.4586C29.1436 22.1032 29.3118 22.6116 29.6484 22.984C29.9886 23.3564 30.4434 23.5426 31.0127 23.5426C31.4925 23.5426 31.9437 23.3833 32.3662 23.0646V23.9025ZM37.4473 23.9025C37.0247 24.1567 36.5234 24.2838 35.9434 24.2838C35.1592 24.2838 34.5254 24.0296 34.042 23.5211C33.5622 23.0091 33.3223 22.3467 33.3223 21.5338C33.3223 20.6279 33.5819 19.901 34.1011 19.3532C34.6203 18.8017 35.3132 18.526 36.1797 18.526C36.6631 18.526 37.0892 18.6155 37.458 18.7946V19.6969C37.0498 19.4105 36.613 19.2672 36.1475 19.2672C35.5853 19.2672 35.1234 19.4696 34.7617 19.8742C34.4036 20.2752 34.2246 20.8034 34.2246 21.4586C34.2246 22.1032 34.3929 22.6116 34.7295 22.984C35.0697 23.3564 35.5244 23.5426 36.0938 23.5426C36.5736 23.5426 37.0247 23.3833 37.4473 23.0646V23.9025ZM41.0781 24.2838C40.2653 24.2838 39.6154 24.0278 39.1284 23.5158C38.645 23.0002 38.4033 22.318 38.4033 21.4694C38.4033 20.5456 38.6558 19.824 39.1606 19.3048C39.6655 18.7856 40.3477 18.526 41.207 18.526C42.027 18.526 42.6662 18.7785 43.1245 19.2834C43.5864 19.7882 43.8174 20.4883 43.8174 21.3835C43.8174 22.2607 43.5685 22.9643 43.0708 23.4943C42.5767 24.0207 41.9124 24.2838 41.0781 24.2838ZM41.1426 19.2672C40.5768 19.2672 40.1292 19.4606 39.7998 19.8473C39.4704 20.2305 39.3057 20.7604 39.3057 21.4372C39.3057 22.0889 39.4722 22.6027 39.8052 22.9787C40.1382 23.3546 40.584 23.5426 41.1426 23.5426C41.7119 23.5426 42.1488 23.3582 42.4531 22.9894C42.7611 22.6206 42.915 22.096 42.915 21.4157C42.915 20.7282 42.7611 20.1982 42.4531 19.8258C42.1488 19.4534 41.7119 19.2672 41.1426 19.2672ZM49.6719 24.1549H48.791V23.2848H48.7695C48.4043 23.9508 47.8385 24.2838 47.0723 24.2838C45.7617 24.2838 45.1064 23.5032 45.1064 21.942V18.6549H45.9819V21.8024C45.9819 22.9626 46.4259 23.5426 47.314 23.5426C47.7437 23.5426 48.0964 23.3851 48.3721 23.07C48.6514 22.7513 48.791 22.3359 48.791 21.8239V18.6549H49.6719V24.1549ZM56.0205 24.1549H55.1396V21.0182C55.1396 19.8509 54.7135 19.2672 53.8613 19.2672C53.4209 19.2672 53.0557 19.4337 52.7656 19.7668C52.4792 20.0962 52.3359 20.5133 52.3359 21.0182V24.1549H51.4551V18.6549H52.3359V19.568H52.3574C52.7728 18.8734 53.3743 18.526 54.1621 18.526C54.7637 18.526 55.2238 18.7212 55.5425 19.1115C55.8612 19.4982 56.0205 20.0586 56.0205 20.7926V24.1549ZM60.2368 24.1012C60.0291 24.2158 59.7552 24.2731 59.415 24.2731C58.4518 24.2731 57.9702 23.736 57.9702 22.6618V19.4069H57.0249V18.6549H57.9702V17.3122L58.8511 17.0275V18.6549H60.2368V19.4069H58.8511V22.506C58.8511 22.8748 58.9137 23.138 59.0391 23.2956C59.1644 23.4531 59.3721 23.5319 59.6621 23.5319C59.8841 23.5319 60.0757 23.471 60.2368 23.3493V24.1012ZM61.0801 23.9562V23.0109C61.5599 23.3654 62.0881 23.5426 62.6646 23.5426C63.438 23.5426 63.8247 23.2848 63.8247 22.7692C63.8247 22.6224 63.7907 22.4989 63.7227 22.3986C63.6582 22.2947 63.5687 22.2034 63.4541 22.1247C63.3431 22.0459 63.2106 21.9761 63.0566 21.9152C62.9062 21.8507 62.7433 21.7845 62.5679 21.7165C62.3244 21.6198 62.1095 21.5231 61.9233 21.4264C61.7407 21.3262 61.5868 21.2152 61.4614 21.0934C61.3397 20.9681 61.2466 20.8266 61.1821 20.6691C61.1213 20.5115 61.0908 20.3271 61.0908 20.1159C61.0908 19.8581 61.1499 19.6307 61.2681 19.4337C61.3862 19.2332 61.5438 19.0667 61.7407 18.9342C61.9377 18.7982 62.1615 18.6961 62.4121 18.6281C62.6663 18.56 62.9277 18.526 63.1963 18.526C63.6725 18.526 64.0986 18.6084 64.4746 18.7731V19.6647C64.07 19.3997 63.6045 19.2672 63.0781 19.2672C62.9134 19.2672 62.7648 19.2869 62.6323 19.3263C62.4998 19.3621 62.3853 19.4141 62.2886 19.4821C62.1955 19.5501 62.1221 19.6325 62.0684 19.7292C62.0182 19.8223 61.9932 19.9261 61.9932 20.0407C61.9932 20.1839 62.0182 20.3039 62.0684 20.4005C62.1221 20.4972 62.1991 20.5832 62.2993 20.6584C62.3996 20.7336 62.5213 20.8016 62.6646 20.8625C62.8078 20.9233 62.9707 20.9896 63.1533 21.0612C63.3968 21.1543 63.6152 21.251 63.8086 21.3512C64.002 21.4479 64.1667 21.5589 64.3027 21.6842C64.4388 21.806 64.5426 21.9474 64.6143 22.1086C64.6895 22.2697 64.7271 22.4613 64.7271 22.6833C64.7271 22.9554 64.6662 23.1917 64.5444 23.3922C64.4263 23.5928 64.2669 23.7593 64.0664 23.8918C63.8659 24.0242 63.6349 24.1227 63.3735 24.1872C63.1121 24.2516 62.8382 24.2838 62.5518 24.2838C61.986 24.2838 61.4954 24.1746 61.0801 23.9562Z" fill="#C7C7C7"/>
<path d="M69.9478 21.4157C69.783 21.4157 69.6416 21.3566 69.5234 21.2384C69.4089 21.1203 69.3516 20.9788 69.3516 20.8141C69.3516 20.6458 69.4089 20.5026 69.5234 20.3844C69.6416 20.2663 69.783 20.2072 69.9478 20.2072C70.116 20.2072 70.2593 20.2663 70.3774 20.3844C70.4956 20.5026 70.5547 20.6458 70.5547 20.8141C70.5547 20.9788 70.4956 21.1203 70.3774 21.2384C70.2593 21.3566 70.116 21.4157 69.9478 21.4157Z" fill="white"/>
<path d="M81.2998 24.1549H80.3975V20.6422H76.4121V24.1549H75.5098V16.4528H76.4121V19.8312H80.3975V16.4528H81.2998V24.1549ZM87.1382 24.1549H86.2573V23.2956H86.2358C85.8527 23.9544 85.2887 24.2838 84.5439 24.2838C83.9961 24.2838 83.5664 24.1388 83.2549 23.8488C82.9469 23.5587 82.793 23.1738 82.793 22.694C82.793 21.6663 83.3981 21.0683 84.6084 20.9001L86.2573 20.6691C86.2573 19.7345 85.8796 19.2672 85.124 19.2672C84.4616 19.2672 83.8636 19.4928 83.3301 19.944V19.0417C83.8708 18.6979 84.4938 18.526 85.1992 18.526C86.4919 18.526 87.1382 19.21 87.1382 20.5778V24.1549ZM86.2573 21.3727L84.9307 21.5553C84.5225 21.6126 84.2145 21.7147 84.0068 21.8615C83.7992 22.0047 83.6953 22.2607 83.6953 22.6295C83.6953 22.8981 83.7902 23.1183 83.98 23.2902C84.1733 23.4585 84.4294 23.5426 84.748 23.5426C85.1849 23.5426 85.5448 23.3905 85.8276 23.0861C86.1141 22.7781 86.2573 22.3896 86.2573 21.9206V21.3727ZM88.4648 23.9562V23.0109C88.9447 23.3654 89.4728 23.5426 90.0493 23.5426C90.8228 23.5426 91.2095 23.2848 91.2095 22.7692C91.2095 22.6224 91.1755 22.4989 91.1074 22.3986C91.043 22.2947 90.9535 22.2034 90.8389 22.1247C90.7279 22.0459 90.5954 21.9761 90.4414 21.9152C90.291 21.8507 90.1281 21.7845 89.9526 21.7165C89.7091 21.6198 89.4943 21.5231 89.3081 21.4264C89.1255 21.3262 88.9715 21.2152 88.8462 21.0934C88.7244 20.9681 88.6313 20.8266 88.5669 20.6691C88.506 20.5115 88.4756 20.3271 88.4756 20.1159C88.4756 19.8581 88.5347 19.6307 88.6528 19.4337C88.771 19.2332 88.9285 19.0667 89.1255 18.9342C89.3224 18.7982 89.5462 18.6961 89.7969 18.6281C90.0511 18.56 90.3125 18.526 90.5811 18.526C91.0573 18.526 91.4834 18.6084 91.8594 18.7731V19.6647C91.4548 19.3997 90.9893 19.2672 90.4629 19.2672C90.2982 19.2672 90.1496 19.2869 90.0171 19.3263C89.8846 19.3621 89.77 19.4141 89.6733 19.4821C89.5802 19.5501 89.5068 19.6325 89.4531 19.7292C89.403 19.8223 89.3779 19.9261 89.3779 20.0407C89.3779 20.1839 89.403 20.3039 89.4531 20.4005C89.5068 20.4972 89.5838 20.5832 89.6841 20.6584C89.7843 20.7336 89.9061 20.8016 90.0493 20.8625C90.1925 20.9233 90.3555 20.9896 90.5381 21.0612C90.7816 21.1543 91 21.251 91.1934 21.3512C91.3867 21.4479 91.5514 21.5589 91.6875 21.6842C91.8236 21.806 91.9274 21.9474 91.999 22.1086C92.0742 22.2697 92.1118 22.4613 92.1118 22.6833C92.1118 22.9554 92.0509 23.1917 91.9292 23.3922C91.811 23.5928 91.6517 23.7593 91.4512 23.8918C91.2507 24.0242 91.0197 24.1227 90.7583 24.1872C90.4969 24.2516 90.223 24.2838 89.9365 24.2838C89.3708 24.2838 88.8802 24.1746 88.4648 23.9562ZM98.0361 24.1549H97.1553V20.986C97.1553 19.8402 96.7292 19.2672 95.877 19.2672C95.4473 19.2672 95.0856 19.4337 94.792 19.7668C94.4984 20.0962 94.3516 20.5205 94.3516 21.0397V24.1549H93.4707V16.0124H94.3516V19.568H94.373C94.7956 18.8734 95.3971 18.526 96.1777 18.526C97.4167 18.526 98.0361 19.2726 98.0361 20.7658V24.1549ZM102.252 24.1012C102.045 24.2158 101.771 24.2731 101.431 24.2731C100.467 24.2731 99.9858 23.736 99.9858 22.6618V19.4069H99.0405V18.6549H99.9858V17.3122L100.867 17.0275V18.6549H102.252V19.4069H100.867V22.506C100.867 22.8748 100.929 23.138 101.055 23.2956C101.18 23.4531 101.388 23.5319 101.678 23.5319C101.9 23.5319 102.091 23.471 102.252 23.3493V24.1012ZM107.366 24.1549H106.485V23.2956H106.463C106.08 23.9544 105.516 24.2838 104.771 24.2838C104.224 24.2838 103.794 24.1388 103.482 23.8488C103.174 23.5587 103.021 23.1738 103.021 22.694C103.021 21.6663 103.626 21.0683 104.836 20.9001L106.485 20.6691C106.485 19.7345 106.107 19.2672 105.352 19.2672C104.689 19.2672 104.091 19.4928 103.558 19.944V19.0417C104.098 18.6979 104.721 18.526 105.427 18.526C106.719 18.526 107.366 19.21 107.366 20.5778V24.1549ZM106.485 21.3727L105.158 21.5553C104.75 21.6126 104.442 21.7147 104.234 21.8615C104.027 22.0047 103.923 22.2607 103.923 22.6295C103.923 22.8981 104.018 23.1183 104.208 23.2902C104.401 23.4585 104.657 23.5426 104.976 23.5426C105.412 23.5426 105.772 23.3905 106.055 23.0861C106.342 22.7781 106.485 22.3896 106.485 21.9206V21.3727ZM113.72 23.7145C113.72 25.734 112.753 26.7438 110.819 26.7438C110.139 26.7438 109.545 26.6149 109.036 26.3571V25.4762C109.656 25.82 110.246 25.9919 110.809 25.9919C112.162 25.9919 112.839 25.2721 112.839 23.8327V23.2311H112.817C112.398 23.9329 111.768 24.2838 110.927 24.2838C110.243 24.2838 109.691 24.0404 109.272 23.5534C108.857 23.0628 108.649 22.4058 108.649 21.5822C108.649 20.6476 108.873 19.9046 109.321 19.3532C109.772 18.8017 110.388 18.526 111.168 18.526C111.91 18.526 112.459 18.8232 112.817 19.4176H112.839V18.6549H113.72V23.7145ZM112.839 21.6681V20.8571C112.839 20.4202 112.69 20.0461 112.393 19.7345C112.099 19.423 111.732 19.2672 111.292 19.2672C110.748 19.2672 110.322 19.466 110.014 19.8634C109.706 20.2573 109.552 20.8105 109.552 21.5231C109.552 22.1354 109.699 22.626 109.992 22.9948C110.289 23.36 110.681 23.5426 111.168 23.5426C111.663 23.5426 112.064 23.3672 112.372 23.0163C112.683 22.6654 112.839 22.216 112.839 21.6681ZM115.17 23.9562V23.0109C115.65 23.3654 116.178 23.5426 116.754 23.5426C117.528 23.5426 117.915 23.2848 117.915 22.7692C117.915 22.6224 117.881 22.4989 117.812 22.3986C117.748 22.2947 117.659 22.2034 117.544 22.1247C117.433 22.0459 117.3 21.9761 117.146 21.9152C116.996 21.8507 116.833 21.7845 116.658 21.7165C116.414 21.6198 116.199 21.5231 116.013 21.4264C115.831 21.3262 115.677 21.2152 115.551 21.0934C115.43 20.9681 115.336 20.8266 115.272 20.6691C115.211 20.5115 115.181 20.3271 115.181 20.1159C115.181 19.8581 115.24 19.6307 115.358 19.4337C115.476 19.2332 115.634 19.0667 115.831 18.9342C116.028 18.7982 116.251 18.6961 116.502 18.6281C116.756 18.56 117.018 18.526 117.286 18.526C117.762 18.526 118.188 18.6084 118.564 18.7731V19.6647C118.16 19.3997 117.694 19.2672 117.168 19.2672C117.003 19.2672 116.855 19.2869 116.722 19.3263C116.59 19.3621 116.475 19.4141 116.378 19.4821C116.285 19.5501 116.212 19.6325 116.158 19.7292C116.108 19.8223 116.083 19.9261 116.083 20.0407C116.083 20.1839 116.108 20.3039 116.158 20.4005C116.212 20.4972 116.289 20.5832 116.389 20.6584C116.489 20.7336 116.611 20.8016 116.754 20.8625C116.898 20.9233 117.061 20.9896 117.243 21.0612C117.487 21.1543 117.705 21.251 117.898 21.3512C118.092 21.4479 118.257 21.5589 118.393 21.6842C118.529 21.806 118.632 21.9474 118.704 22.1086C118.779 22.2697 118.817 22.4613 118.817 22.6833C118.817 22.9554 118.756 23.1917 118.634 23.3922C118.516 23.5928 118.357 23.7593 118.156 23.8918C117.956 24.0242 117.725 24.1227 117.463 24.1872C117.202 24.2516 116.928 24.2838 116.642 24.2838C116.076 24.2838 115.585 24.1746 115.17 23.9562Z" fill="#C7C7C7"/>
<path d="M123.448 21.4157C123.283 21.4157 123.142 21.3566 123.023 21.2384C122.909 21.1203 122.852 20.9788 122.852 20.8141C122.852 20.6458 122.909 20.5026 123.023 20.3844C123.142 20.2663 123.283 20.2072 123.448 20.2072C123.616 20.2072 123.759 20.2663 123.877 20.3844C123.996 20.5026 124.055 20.6458 124.055 20.8141C124.055 20.9788 123.996 21.1203 123.877 21.2384C123.759 21.3566 123.616 21.4157 123.448 21.4157Z" fill="white"/>
<path d="M133.006 24.1549H129.01V16.4528H129.912V23.3385H133.006V24.1549ZM138.006 24.1549H137.125V23.2956H137.104C136.721 23.9544 136.157 24.2838 135.412 24.2838C134.864 24.2838 134.435 24.1388 134.123 23.8488C133.815 23.5587 133.661 23.1738 133.661 22.694C133.661 21.6663 134.266 21.0683 135.477 20.9001L137.125 20.6691C137.125 19.7345 136.748 19.2672 135.992 19.2672C135.33 19.2672 134.732 19.4928 134.198 19.944V19.0417C134.739 18.6979 135.362 18.526 136.067 18.526C137.36 18.526 138.006 19.21 138.006 20.5778V24.1549ZM137.125 21.3727L135.799 21.5553C135.391 21.6126 135.083 21.7147 134.875 21.8615C134.667 22.0047 134.563 22.2607 134.563 22.6295C134.563 22.8981 134.658 23.1183 134.848 23.2902C135.042 23.4585 135.298 23.5426 135.616 23.5426C136.053 23.5426 136.413 23.3905 136.696 23.0861C136.982 22.7781 137.125 22.3896 137.125 21.9206V21.3727ZM144.231 24.1549H143.351V21.0182C143.351 19.8509 142.924 19.2672 142.072 19.2672C141.632 19.2672 141.267 19.4337 140.977 19.7668C140.69 20.0962 140.547 20.5133 140.547 21.0182V24.1549H139.666V18.6549H140.547V19.568H140.568C140.984 18.8734 141.585 18.526 142.373 18.526C142.975 18.526 143.435 18.7212 143.753 19.1115C144.072 19.4982 144.231 20.0586 144.231 20.7926V24.1549ZM150.591 23.7145C150.591 25.734 149.624 26.7438 147.69 26.7438C147.01 26.7438 146.416 26.6149 145.907 26.3571V25.4762C146.527 25.82 147.118 25.9919 147.68 25.9919C149.033 25.9919 149.71 25.2721 149.71 23.8327V23.2311H149.688C149.27 23.9329 148.639 24.2838 147.798 24.2838C147.114 24.2838 146.562 24.0404 146.144 23.5534C145.728 23.0628 145.521 22.4058 145.521 21.5822C145.521 20.6476 145.744 19.9046 146.192 19.3532C146.643 18.8017 147.259 18.526 148.04 18.526C148.781 18.526 149.33 18.8232 149.688 19.4176H149.71V18.6549H150.591V23.7145ZM149.71 21.6681V20.8571C149.71 20.4202 149.561 20.0461 149.264 19.7345C148.971 19.423 148.604 19.2672 148.163 19.2672C147.619 19.2672 147.193 19.466 146.885 19.8634C146.577 20.2573 146.423 20.8105 146.423 21.5231C146.423 22.1354 146.57 22.626 146.863 22.9948C147.16 23.36 147.553 23.5426 148.04 23.5426C148.534 23.5426 148.935 23.3672 149.243 23.0163C149.554 22.6654 149.71 22.216 149.71 21.6681ZM156.821 24.1549H155.94V23.2848H155.919C155.554 23.9508 154.988 24.2838 154.222 24.2838C152.911 24.2838 152.256 23.5032 152.256 21.942V18.6549H153.131V21.8024C153.131 22.9626 153.575 23.5426 154.463 23.5426C154.893 23.5426 155.246 23.3851 155.521 23.07C155.801 22.7513 155.94 22.3359 155.94 21.8239V18.6549H156.821V24.1549ZM162.542 24.1549H161.661V23.2956H161.639C161.256 23.9544 160.692 24.2838 159.947 24.2838C159.399 24.2838 158.97 24.1388 158.658 23.8488C158.35 23.5587 158.196 23.1738 158.196 22.694C158.196 21.6663 158.801 21.0683 160.012 20.9001L161.661 20.6691C161.661 19.7345 161.283 19.2672 160.527 19.2672C159.865 19.2672 159.267 19.4928 158.733 19.944V19.0417C159.274 18.6979 159.897 18.526 160.603 18.526C161.895 18.526 162.542 19.21 162.542 20.5778V24.1549ZM161.661 21.3727L160.334 21.5553C159.926 21.6126 159.618 21.7147 159.41 21.8615C159.202 22.0047 159.099 22.2607 159.099 22.6295C159.099 22.8981 159.194 23.1183 159.383 23.2902C159.577 23.4585 159.833 23.5426 160.151 23.5426C160.588 23.5426 160.948 23.3905 161.231 23.0861C161.517 22.7781 161.661 22.3896 161.661 21.9206V21.3727ZM168.896 23.7145C168.896 25.734 167.929 26.7438 165.995 26.7438C165.315 26.7438 164.72 26.6149 164.212 26.3571V25.4762C164.831 25.82 165.422 25.9919 165.984 25.9919C167.338 25.9919 168.015 25.2721 168.015 23.8327V23.2311H167.993C167.574 23.9329 166.944 24.2838 166.103 24.2838C165.419 24.2838 164.867 24.0404 164.448 23.5534C164.033 23.0628 163.825 22.4058 163.825 21.5822C163.825 20.6476 164.049 19.9046 164.497 19.3532C164.948 18.8017 165.564 18.526 166.344 18.526C167.085 18.526 167.635 18.8232 167.993 19.4176H168.015V18.6549H168.896V23.7145ZM168.015 21.6681V20.8571C168.015 20.4202 167.866 20.0461 167.569 19.7345C167.275 19.423 166.908 19.2672 166.468 19.2672C165.924 19.2672 165.497 19.466 165.189 19.8634C164.882 20.2573 164.728 20.8105 164.728 21.5231C164.728 22.1354 164.874 22.626 165.168 22.9948C165.465 23.36 165.857 23.5426 166.344 23.5426C166.838 23.5426 167.239 23.3672 167.547 23.0163C167.859 22.6654 168.015 22.216 168.015 21.6681ZM175.099 21.6252H171.216C171.23 22.2375 171.395 22.7101 171.71 23.0431C172.025 23.3761 172.458 23.5426 173.01 23.5426C173.629 23.5426 174.199 23.3385 174.718 22.9303V23.7575C174.234 24.1084 173.595 24.2838 172.8 24.2838C172.023 24.2838 171.413 24.035 170.969 23.5373C170.525 23.036 170.303 22.3323 170.303 21.4264C170.303 20.5706 170.544 19.8742 171.028 19.3371C171.515 18.7964 172.118 18.526 172.838 18.526C173.558 18.526 174.114 18.7588 174.508 19.2243C174.902 19.6898 175.099 20.3361 175.099 21.1632V21.6252ZM174.197 20.8786C174.193 20.3701 174.07 19.9744 173.826 19.6916C173.586 19.4087 173.251 19.2672 172.822 19.2672C172.406 19.2672 172.054 19.4158 171.764 19.713C171.474 20.0102 171.295 20.3988 171.227 20.8786H174.197Z" fill="#C7C7C7"/>
<path d="M179.948 21.4157C179.783 21.4157 179.642 21.3566 179.523 21.2384C179.409 21.1203 179.352 20.9788 179.352 20.8141C179.352 20.6458 179.409 20.5026 179.523 20.3844C179.642 20.2663 179.783 20.2072 179.948 20.2072C180.116 20.2072 180.259 20.2663 180.377 20.3844C180.496 20.5026 180.555 20.6458 180.555 20.8141C180.555 20.9788 180.496 21.1203 180.377 21.2384C180.259 21.3566 180.116 21.4157 179.948 21.4157Z" fill="white"/>
</svg>
