<svg width="72" height="20" viewBox="0 0 72 20" fill="none" xmlns="http://www.w3.org/2000/svg">
<path d="M5.4126 14V4.61768H8.81836V3.43115H0.688477V4.61768H4.09424V14H5.4126ZM19.6729 6.10449H18.4058L16.853 12.418H16.7358L14.9707 6.10449H13.7622L11.9971 12.418H11.8799L10.3271 6.10449H9.05273L11.2646 14H12.5391L14.2969 7.8916H14.4141L16.1792 14H17.4609L19.6729 6.10449ZM21.3867 14H22.6465V6.10449H21.3867V14ZM22.0166 4.50049C22.5 4.50049 22.8955 4.10498 22.8955 3.62158C22.8955 3.13818 22.5 2.74268 22.0166 2.74268C21.5332 2.74268 21.1377 3.13818 21.1377 3.62158C21.1377 4.10498 21.5332 4.50049 22.0166 4.50049ZM25.5762 4.06104V6.10449H24.3018V7.15918H25.5762V11.9492C25.5762 13.458 26.228 14.0586 27.854 14.0586C28.103 14.0586 28.3447 14.0293 28.5938 13.9854V12.9233C28.3594 12.9453 28.2349 12.9526 28.0078 12.9526C27.1875 12.9526 26.8359 12.5571 26.8359 11.627V7.15918H28.5938V6.10449H26.8359V4.06104H25.5762ZM31.0254 4.06104V6.10449H29.751V7.15918H31.0254V11.9492C31.0254 13.458 31.6772 14.0586 33.3032 14.0586C33.5522 14.0586 33.7939 14.0293 34.043 13.9854V12.9233C33.8086 12.9453 33.6841 12.9526 33.457 12.9526C32.6367 12.9526 32.2852 12.5571 32.2852 11.627V7.15918H34.043V6.10449H32.2852V4.06104H31.0254ZM38.9795 7.07861C40.2319 7.07861 41.0669 8.00146 41.0962 9.40039H36.7456C36.8408 8.00146 37.7197 7.07861 38.9795 7.07861ZM41.0596 11.9565C40.73 12.6523 40.0415 13.0259 39.0234 13.0259C37.6831 13.0259 36.8115 12.0371 36.7456 10.4771V10.4185H42.4219V9.93506C42.4219 7.48145 41.1255 5.96533 38.9941 5.96533C36.8262 5.96533 35.4346 7.57666 35.4346 10.0596C35.4346 12.5571 36.8042 14.1392 38.9941 14.1392C40.7227 14.1392 41.9385 13.3115 42.3193 11.9565H41.0596ZM44.3994 14H45.6592V9.10742C45.6592 7.99414 46.5308 7.18848 47.7319 7.18848C47.981 7.18848 48.4351 7.23242 48.5376 7.26172V6.00195C48.3765 5.97998 48.1128 5.96533 47.9077 5.96533C46.8604 5.96533 45.9521 6.50732 45.7178 7.27637H45.6006V6.10449H44.3994V14Z" fill="#D9D9D9"/>
<path d="M70.7501 10.4167C70.7501 9.1 70.0209 7.95833 68.9601 7.41667C69.0884 7.05417 69.1584 6.6625 69.1584 6.25C69.1584 4.40833 67.7334 2.91833 65.9768 2.91833C65.5851 2.91833 65.2101 2.98833 64.8634 3.12667C64.3484 2.0125 63.2584 1.25 62.0001 1.25C60.7418 1.25 59.6534 2.01417 59.1359 3.125C58.7901 2.9875 58.4143 2.91667 58.0226 2.91667C56.2643 2.91667 54.8409 4.40833 54.8409 6.25C54.8409 6.66167 54.9101 7.05333 55.0384 7.41667C53.9784 7.95833 53.2493 9.09833 53.2493 10.4167C53.2493 11.6625 53.9009 12.7483 54.8676 13.3217C54.8509 13.4633 54.8409 13.605 54.8409 13.75C54.8409 15.5917 56.2643 17.0833 58.0226 17.0833C58.4143 17.0833 58.7893 17.0117 59.1351 16.875C59.6518 17.9867 60.7401 18.75 61.9993 18.75C63.2593 18.75 64.3476 17.9867 64.8634 16.875C65.2093 17.0108 65.5843 17.0817 65.9768 17.0817C67.7351 17.0817 69.1584 15.59 69.1584 13.7483C69.1584 13.6033 69.1484 13.4617 69.1309 13.3208C70.0959 12.7483 70.7501 11.6625 70.7501 10.4175V10.4167ZM65.2368 7.63833L61.6251 13.055C61.5043 13.2358 61.3068 13.3333 61.1043 13.3333C60.9851 13.3333 60.8643 13.3 60.7576 13.2283L60.6618 13.15L58.6493 11.1375C58.4051 10.8933 58.4051 10.4975 58.6493 10.2542C58.8934 10.0108 59.2893 10.0092 59.5326 10.2542L61.0076 11.7267L64.1951 6.94333C64.3868 6.65583 64.7751 6.58 65.0618 6.77083C65.3501 6.9625 65.4284 7.35083 65.2368 7.6375V7.63833Z" fill="#D9D9D9"/>
</svg>
